<svg xmlns="http://www.w3.org/2000/svg" width="80.407" height="80.407" viewBox="0 0 80.407 80.407">
  <g id="Group_58" data-name="Group 58" transform="translate(2.61 2.609)">
    <path id="Path_99" data-name="Path 99" d="M56.93,23.259C75.49,41.818,83,64.4,73.7,73.7s-31.881,1.789-50.44-16.77S-2.808,15.787,6.49,6.49,38.37,4.7,56.93,23.259Z" transform="translate(-2.5 -2.5)" fill="none" stroke="#0657fc" stroke-miterlimit="10" stroke-width="5"/>
    <path id="Path_100" data-name="Path 100" d="M56.93,56.93C38.37,75.49,15.787,83,6.49,73.7S4.7,41.819,23.26,23.26,64.4-2.808,73.7,6.49,75.49,38.37,56.93,56.93Z" transform="translate(-2.5 -2.5)" fill="none" stroke="#0657fc" stroke-miterlimit="10" stroke-width="5"/>
    <path id="Path_101" data-name="Path 101" d="M57.351,50.111A7.241,7.241,0,1,1,50.11,42.87,7.241,7.241,0,0,1,57.351,50.111Z" transform="translate(-12.516 -12.516)" fill="none" stroke="#0657fc" stroke-miterlimit="10" stroke-width="5"/>
  </g>
</svg>
