<svg xmlns="http://www.w3.org/2000/svg" width="80.607" height="80.733" viewBox="0 0 80.607 80.733">
  <g id="Group_60" data-name="Group 60" transform="translate(2.5 78.233) rotate(-90)">
    <path id="Path_102" data-name="Path 102" d="M14.482,7.241A7.241,7.241,0,1,1,7.241,0,7.241,7.241,0,0,1,14.482,7.241Z" transform="translate(30.625 0)" fill="none" stroke="#0450fb" stroke-miterlimit="10" stroke-width="5"/>
    <path id="Path_103" data-name="Path 103" d="M14.482,7.241A7.241,7.241,0,1,1,7.241,0,7.241,7.241,0,0,1,14.482,7.241Z" transform="translate(0 61.125)" fill="none" stroke="#0450fb" stroke-miterlimit="10" stroke-width="5"/>
    <path id="Path_104" data-name="Path 104" d="M14.482,7.241A7.241,7.241,0,1,1,7.241,0,7.241,7.241,0,0,1,14.482,7.241Z" transform="translate(30.625 61.125)" fill="none" stroke="#0450fb" stroke-miterlimit="10" stroke-width="5"/>
    <path id="Path_105" data-name="Path 105" d="M14.482,7.241A7.241,7.241,0,1,1,7.241,0,7.241,7.241,0,0,1,14.482,7.241Z" transform="translate(61.251 61.125)" fill="none" stroke="#0450fb" stroke-miterlimit="10" stroke-width="5"/>
    <line id="Line_24" data-name="Line 24" y2="46.643" transform="translate(37.867 14.481)" fill="none" stroke="#0450fb" stroke-miterlimit="10" stroke-width="5"/>
    <path id="Path_106" data-name="Path 106" d="M61.252,23.322V0H0V23.322" transform="translate(7.241 37.803)" fill="none" stroke="#0450fb" stroke-miterlimit="10" stroke-width="5"/>
  </g>
</svg>
