<svg xmlns="http://www.w3.org/2000/svg" width="77.257" height="77.257" viewBox="0 0 77.257 77.257">
  <g id="Group_56" data-name="Group 56" transform="translate(2.5 2.5)">
    <g id="Group_53" data-name="Group 53" transform="translate(0 0)">
      <rect id="Rectangle_65" data-name="Rectangle 65" width="72.257" height="72.257" fill="none" stroke="#0450fb" stroke-miterlimit="10" stroke-width="5"/>
    </g>
    <line id="Line_21" data-name="Line 21" x2="32.792" transform="translate(25.394 17.573)" fill="none" stroke="#0450fb" stroke-miterlimit="10" stroke-width="5"/>
    <line id="Line_22" data-name="Line 22" x2="32.792" transform="translate(25.394 36.129)" fill="none" stroke="#0450fb" stroke-miterlimit="10" stroke-width="5"/>
    <line id="Line_23" data-name="Line 23" x2="32.792" transform="translate(25.394 54.685)" fill="none" stroke="#0450fb" stroke-miterlimit="10" stroke-width="5"/>
    <g id="Group_55" data-name="Group 55" transform="translate(12.264 14.682)">
      <path id="Path_96" data-name="Path 96" d="M23.363,29.6h0a2.89,2.89,0,1,1,2.89-2.89,2.89,2.89,0,0,1-2.89,2.89" transform="translate(-20.473 -23.819)" fill="#0450fb"/>
      <path id="Path_97" data-name="Path 97" d="M23.363,55.281h0a2.89,2.89,0,1,1,2.89-2.89,2.89,2.89,0,0,1-2.89,2.89" transform="translate(-20.473 -30.944)" fill="#0450fb"/>
      <path id="Path_98" data-name="Path 98" d="M23.363,80.962h0a2.89,2.89,0,1,1,2.89-2.89,2.89,2.89,0,0,1-2.89,2.89" transform="translate(-20.473 -38.068)" fill="#0450fb"/>
    </g>
  </g>
</svg>
