<svg xmlns="http://www.w3.org/2000/svg" width="75.189" height="64.966" viewBox="0 0 75.189 64.966">
  <g id="Group_49" data-name="Group 49" transform="translate(0 2.5)">
    <path id="Path_92" data-name="Path 92" d="M0,2.5c7.518,0,7.518,4.9,15.037,4.9s7.518-4.9,15.036-4.9S37.591,7.4,45.11,7.4s7.52-4.9,15.039-4.9,7.52,4.9,15.039,4.9" transform="translate(0 -2.5)" fill="none" stroke="#0657fc" stroke-miterlimit="10" stroke-width="5"/>
    <path id="Path_93" data-name="Path 93" d="M0,24.457c7.518,0,7.518,4.9,15.037,4.9s7.518-4.9,15.036-4.9,7.518,4.9,15.037,4.9,7.52-4.9,15.039-4.9,7.52,4.9,15.039,4.9" transform="translate(0 -6.103)" fill="none" stroke="#0657fc" stroke-miterlimit="10" stroke-width="5"/>
    <path id="Path_94" data-name="Path 94" d="M0,46.415c7.518,0,7.518,4.9,15.037,4.9s7.518-4.9,15.036-4.9,7.518,4.9,15.037,4.9,7.52-4.9,15.039-4.9,7.52,4.9,15.039,4.9" transform="translate(0 -9.706)" fill="none" stroke="#0657fc" stroke-miterlimit="10" stroke-width="5"/>
    <path id="Path_95" data-name="Path 95" d="M0,68.372c7.518,0,7.518,4.9,15.037,4.9s7.518-4.9,15.036-4.9,7.518,4.9,15.037,4.9,7.52-4.9,15.039-4.9,7.52,4.9,15.039,4.9" transform="translate(0 -13.31)" fill="none" stroke="#0657fc" stroke-miterlimit="10" stroke-width="5"/>
  </g>
</svg>
